<svg xmlns="http://www.w3.org/2000/svg" data-name="Layer 1" viewBox="0 0 64 64"><path fill="#f9e3ae" d="M61.25,32.78l-3.46-.43a1,1,0,0,1-.74-.5,16.48,16.48,0,0,0-3.69-4.34,1,1,0,0,1-.36-.76V17.07a7.89,7.89,0,0,0-7.33,3.05A28.86,28.86,0,0,0,29,15c-9.08,0-17.07,3.94-21.72,9.91A1,1,0,0,1,5.74,25a7.86,7.86,0,0,1-1.62-6.29,8,8,0,0,0-.66,12.1,1,1,0,0,1,.28,1A18.79,18.79,0,0,0,3,37,20.06,20.06,0,0,0,9.28,51.34a1,1,0,0,1,.3.8l-.7,6.95a2,2,0,0,0,1.47,2.13L15,62.47a2,2,0,0,0,2.19-.84l2.23-3.41a1,1,0,0,1,1.12-.41,30.57,30.57,0,0,0,16.79,0,1,1,0,0,1,1.11.41l2.22,3.4a2,2,0,0,0,2.19.84l4.68-1.25A2,2,0,0,0,49,59.08L48.52,54a1,1,0,0,1,.59-1A17.73,17.73,0,0,0,57,46.15a1,1,0,0,1,.73-.48l3.57-.45a2,2,0,0,0,1.75-2V34.77A2,2,0,0,0,61.25,32.78Z"/><path fill="#f6d397" d="M56.52,46.82a5.75,5.75,0,0,0-8.42.29c-4,4.63-10.59,7.66-18.1,7.66-8.14,0-15.24-3.57-19-8.87a3.93,3.93,0,0,0-6-.55H5a21.73,21.73,0,0,0,4.32,6,1,1,0,0,1,.3.8l-.7,6.95a2,2,0,0,0,1.47,2.13L15,62.47a2,2,0,0,0,2.19-.84l2.23-3.41a1,1,0,0,1,1.12-.41,30.57,30.57,0,0,0,16.79,0,1,1,0,0,1,1.11.41l2.22,3.4a2,2,0,0,0,2.19.84l4.68-1.25A2,2,0,0,0,49,59.08L48.52,54a1,1,0,0,1,.59-1,17.92,17.92,0,0,0,7.41-6.2Z"/><path fill="#c2cde7" d="M35.5 1A7.5 7.5 0 1 0 35.5 16A7.5 7.5 0 1 0 35.5 1Z"/><path fill="#faefde" d="M29,15a28.67,28.67,0,0,0-17.4,5.67l.4.54a4,4,0,0,0,5.18,1.11A23.62,23.62,0,0,1,29,19.23a22.94,22.94,0,0,1,15,5.34L45,19C40.76,16.46,34.59,15,29,15Z"/><path fill="#ced8ed" d="M20,14a9,9,0,1,1,14.76,6.92C30,20,27,20,23.24,20.91A9,9,0,0,1,20,14Z"/><path fill="#8d6c9f" d="M35 39a4 4 0 0 0-4-4V31a1 1 0 0 0-2 0v4a2 2 0 0 1-2-2V31a2 2 0 0 1 2-2h2a2 2 0 0 1 2 2 1 1 0 0 0 2 0 4 4 0 0 0-4-4V26a1 1 0 0 0-2 0v1a4 4 0 0 0-4 4v2a4 4 0 0 0 4 4h2a2 2 0 0 1 2 2v2a2 2 0 0 1-2 2V39a1 1 0 0 0-2 0v4a2 2 0 0 1-2-2 1 1 0 0 0-2 0 4 4 0 0 0 4 4v1a1 1 0 0 0 2 0V45a4 4 0 0 0 4-4zM50.04 32A2 2 0 1 0 50.04 36 2 2 0 1 0 50.04 32zM30 51a1 1 0 0 0-1 1v2a1 1 0 0 0 2 0V52A1 1 0 0 0 30 51zM25.22 50.5a1 1 0 0 0-1.19.77l-.42 2a1 1 0 0 0 .77 1.19l.21 0a1 1 0 0 0 1-.79l.42-2A1 1 0 0 0 25.22 50.5zM20.65 49a1 1 0 0 0-1.32.51l-.81 1.83a1 1 0 1 0 1.83.81l.81-1.83A1 1 0 0 0 20.65 49zM15.08 46.83l-1.18 1.62a1 1 0 0 0 1.62 1.18L16.7 48a1 1 0 0 0-1.62-1.18zM36 51.27a1 1 0 0 0-2 .42l.42 2a1 1 0 0 0 1 .79l.21 0a1 1 0 0 0 .77-1.19zM40.68 49.52a1 1 0 1 0-1.83.81l.81 1.83a1 1 0 0 0 1.83-.81zM44.92 46.83A1 1 0 0 0 43.3 48l1.18 1.62a1 1 0 1 0 1.62-1.18z"/><path fill="#8d6c9f" d="M61.37,31.79h0l-3.46-.44A17.28,17.28,0,0,0,54,26.75V17.07a1,1,0,0,0-.88-1,8.84,8.84,0,0,0-6.82,2l-.05,0-.08.07-.11.1c-.2.17-.39.35-.58.54a28.25,28.25,0,0,0-5.82-2.9A8.49,8.49,0,1,0,28.27,4a9.9,9.9,0,0,0-9.13,11.58A26.36,26.36,0,0,0,6.52,24.34,6.9,6.9,0,0,1,5,20a7.06,7.06,0,0,1,.11-1.16,1,1,0,0,0-1.6-1,9,9,0,0,0-.73,13.63A19.84,19.84,0,0,0,2,37,21.08,21.08,0,0,0,8.58,52L7.89,59a3,3,0,0,0,2.21,3.2l4.69,1.26a3,3,0,0,0,3.29-1.26l2.23-3.4a31.59,31.59,0,0,0,17.35,0l2.22,3.39a3,3,0,0,0,3.29,1.26l4.68-1.25A3,3,0,0,0,50,59l-.51-5.05a18.56,18.56,0,0,0,8.28-7.27l3.57-.45a3,3,0,0,0,2.63-3V34.77A3,3,0,0,0,61.37,31.79ZM35.5,2A6.49,6.49,0,0,1,39,14a10,10,0,0,0-8.3-9.8A6.46,6.46,0,0,1,35.5,2ZM29,6a8,8,0,0,1,5.58,13.72,24.54,24.54,0,0,0-11.16,0A8,8,0,0,1,29,6ZM62,43.23a1,1,0,0,1-.88,1l-3.57.45a2,2,0,0,0-1.46,1,16.64,16.64,0,0,1-7.41,6.47,2,2,0,0,0-1.16,2L48,59.18a1,1,0,0,1-.74,1.07l-4.68,1.25a1,1,0,0,1-1.1-.42l-2.22-3.4a2,2,0,0,0-1.66-.9,2,2,0,0,0-.56.08,29.71,29.71,0,0,1-16.23,0,2,2,0,0,0-2.23.82L16.4,61.09a1,1,0,0,1-1.1.42l-4.69-1.26a1,1,0,0,1-.74-1.07l.7-6.95A2,2,0,0,0,10,50.62,19.13,19.13,0,0,1,4,37a17.83,17.83,0,0,1,.7-4.94,2,2,0,0,0-.55-2,7,7,0,0,1-1.06-8.79A8.88,8.88,0,0,0,5,25.59a1.92,1.92,0,0,0,1.51.72h0a2.05,2.05,0,0,0,1.6-.79,24.55,24.55,0,0,1,11.59-8,10,10,0,0,0,1.61,2.79c-.5.17-1,.35-1.48.55a1,1,0,0,0,.77,1.85,22.33,22.33,0,0,1,17.12.11A1,1,0,0,0,38.48,21c-.58-.25-1.16-.47-1.76-.67a10,10,0,0,0,1.61-2.78,26.49,26.49,0,0,1,5.93,2.85A9,9,0,0,0,43,25a1,1,0,0,0,2,0,7,7,0,0,1,1.44-4.25l0,0A7,7,0,0,1,52,18v8.75a2,2,0,0,0,.72,1.53,15.46,15.46,0,0,1,3.46,4.07,2,2,0,0,0,1.48,1l3.46.43a1,1,0,0,1,.88,1Z"/><path fill="#8d6c9f" d="M24,15a1,1,0,0,0,1-1,4,4,0,0,1,4-4,1,1,0,0,0,0-2,6,6,0,0,0-6,6A1,1,0,0,0,24,15Z"/></svg>