<svg xmlns="http://www.w3.org/2000/svg" viewBox="0 0 100 100"><path fill="#f9e65c" d="M38.5,42.974v29.052c0,1.542,1.671,2.504,3.004,1.73L66.521,59.23c1.328-0.771,1.328-2.688,0-3.459 L41.504,41.244C40.171,40.47,38.5,41.432,38.5,42.974z"/><path fill="#c7dff1" d="M77,11H24c-3.314,0-6,2.686-6,6v3h65v-3C83,13.686,80.314,11,77,11z"/><path fill="#c7dff1" d="M80,21H20c-3.314,0-6,0.774-6,6v1h72v-1C86,21.519,83.314,21,80,21z"/><path fill="#78a2d2" d="M86,29H14c-3.314,0-6,2.686-6,6v45c0,3.314,2.686,6,6,6h72c3.314,0,6-2.686,6-6V35 C92,31.686,89.314,29,86,29z M66.521,59.23L41.504,73.756c-1.333,0.774-3.004-0.188-3.004-1.73V42.974 c0-1.542,1.671-2.504,3.004-1.73L66.521,55.77C67.849,56.541,67.849,58.459,66.521,59.23z"/><path fill="#1f212b" d="M88,28.295V26c0-2.785-1.639-5.188-4-6.315V17c0-3.859-3.14-7-7-7H24c-3.86,0-7,3.141-7,7v2.295	c-2.888,0.863-5,3.541-5,6.705v2.295C9.112,29.158,7,31.836,7,35v45c0,3.859,3.14,7,7,7h72c3.86,0,7-3.141,7-7V35	C93,31.836,90.888,29.158,88,28.295z M19,17c0-2.757,2.243-5,5-5h53c2.757,0,5,2.243,5,5v2.08C81.672,19.033,81.34,19,81,19H19V17z M14,26c0-2.757,2.243-5,5-5h62c2.757,0,5,2.243,5,5v2H14V26z M91,80c0,2.757-2.243,5-5,5H14c-2.757,0-5-2.243-5-5V35	c0-2.757,2.243-5,5-5h72c2.757,0,5,2.243,5,5V80z"/><path fill="#1f212b" d="M48.5,34h-36c-0.276,0-0.5-0.224-0.5-0.5s0.224-0.5,0.5-0.5h36c0.276,0,0.5,0.224,0.5,0.5 S48.776,34,48.5,34z"/><path fill="#1f212b" d="M87.5,34h-26c-0.276,0-0.5-0.224-0.5-0.5s0.224-0.5,0.5-0.5h26c0.276,0,0.5,0.224,0.5,0.5 S87.776,34,87.5,34z"/><path fill="#1f212b" d="M21.5,82h-9c-0.276,0-0.5-0.224-0.5-0.5s0.224-0.5,0.5-0.5h9c0.276,0,0.5,0.224,0.5,0.5 S21.776,82,21.5,82z"/><path fill="#1f212b" d="M58.5,34h-7c-0.276,0-0.5-0.224-0.5-0.5s0.224-0.5,0.5-0.5h7c0.276,0,0.5,0.224,0.5,0.5 S58.776,34,58.5,34z"/><path fill="#1f212b" d="M40.5,74.53c-0.429,0-0.857-0.113-1.249-0.338C38.468,73.74,38,72.931,38,72.026V42.974 c0-0.904,0.468-1.714,1.252-2.166c0.785-0.45,1.721-0.45,2.503,0.004l25.017,14.526c0.779,0.452,1.245,1.261,1.245,2.162 s-0.465,1.71-1.245,2.162L41.755,74.188C41.363,74.416,40.932,74.53,40.5,74.53z M40.5,41.472c-0.257,0-0.515,0.067-0.749,0.203 C39.281,41.945,39,42.431,39,42.974v29.053c0,0.543,0.281,1.028,0.751,1.299c0.47,0.272,1.033,0.271,1.502-0.002l25.017-14.526 c0.468-0.271,0.747-0.756,0.747-1.297s-0.279-1.025-0.747-1.297L41.253,41.677C41.018,41.54,40.759,41.472,40.5,41.472z"/><path fill="#1f212b" d="M36.5,82h-12c-0.276,0-0.5-0.224-0.5-0.5s0.224-0.5,0.5-0.5h12c0.276,0,0.5,0.224,0.5,0.5 S36.776,82,36.5,82z"/><path fill="#1f212b" d="M44.5,82h-5c-0.276,0-0.5-0.224-0.5-0.5s0.224-0.5,0.5-0.5h5c0.276,0,0.5,0.224,0.5,0.5 S44.776,82,44.5,82z"/><path fill="#1f212b" d="M86.5,82h-39c-0.276,0-0.5-0.224-0.5-0.5s0.224-0.5,0.5-0.5h39c0.276,0,0.5,0.224,0.5,0.5 S86.776,82,86.5,82z"/></svg>